<?xml version="1.0" encoding="utf-8"?>
<!-- Generator: Adobe Illustrator 25.3.1, SVG Export Plug-In . SVG Version: 6.00 Build 0)  -->
<svg version="1.1" id="Layer_1" xmlns="http://www.w3.org/2000/svg" xmlns:xlink="http://www.w3.org/1999/xlink" x="0px" y="0px"
	 viewBox="0 0 940.6 1152.4" style="enable-background:new 0 0 940.6 1152.4;" xml:space="preserve">
<style type="text/css">
	.st0{fill:#FFFFFF;}
	.st1{fill:#34E0A1;}
</style>
<g>
	<path d="M932.6,1110.9c-3.8,0-6.8,3.1-6.8,6.8c0,3.8,3.1,6.8,6.8,6.8s6.8-3.1,6.8-6.8C939.4,1114,936.3,1110.9,932.6,1110.9z
		 M932.6,1123.5c-3.2,0-5.8-2.6-5.8-5.8c0-3.2,2.6-5.8,5.8-5.8s5.8,2.6,5.8,5.8l0,0C938.3,1120.9,935.8,1123.5,932.6,1123.5z
		 M934.8,1116.6c0-1.2-0.9-2-2.2-2h-2.2v6.2h1.1v-2.3h1.2l1.1,2.3h1.2l-1.2-2.5C934.4,1118,934.8,1117.3,934.8,1116.6z
		 M932.6,1117.6h-1.1v-2.1h1.1c0.7,0,1.2,0.4,1.2,1S933.3,1117.6,932.6,1117.6z M109.8,1041.8v-16.5H84.5v98.2h25.3v-58.9
		c0-10.7,6.9-15.9,17.5-15.9h13.9v-23.4h-11.8C120.1,1025.3,112.1,1030.1,109.8,1041.8z M164.9,986.4c-8.7,0-15.3,6.8-15.3,15.5
		c0,8.5,6.9,15.3,15.3,15.3s15.3-6.9,15.3-15.3C180.2,993.3,173.6,986.4,164.9,986.4L164.9,986.4z M152.3,1123.6h25.3v-98.2h-25.2
		L152.3,1123.6z M297.9,1074.4c0,28-22.7,50.8-50.8,50.8c-10.8,0-21.2-3.5-29.8-10v37.2H192v-127.1h25.3v8.3c8.6-6.5,19-10,29.8-10
		C275.2,1023.6,297.9,1046.4,297.9,1074.4L297.9,1074.4z M272.5,1074.4c0-15.2-12.4-27.6-27.6-27.6c-15.2,0-27.6,12.4-27.6,27.6
		c0,15.2,12.4,27.6,27.6,27.6c0,0,0,0,0,0C260.1,1102,272.5,1089.7,272.5,1074.4C272.5,1074.4,272.5,1074.4,272.5,1074.4
		L272.5,1074.4z M737,1065.8l-14.7-4c-9.7-2.5-13.5-5.5-13.5-10.6c0-5,5.3-8.5,12.9-8.5c7.2,0,12.9,4.7,12.9,10.8v0.5h23.3v-0.5
		c0-17.8-14.5-29.8-36.2-29.8c-21.4,0-37,12-37,28.5c0,12.8,8.5,22.5,23.4,26.5l14.1,3.8c10.7,3,14.7,6.3,14.7,12.2
		c0,6.2-5.8,10.4-14.3,10.4c-8.9,0-15-5.7-15-14.1v-0.5h-24.7v0.5c0,20.2,16.2,34.2,39.5,34.2c22.4,0,38.6-13.7,38.6-32.7
		C760.9,1083.2,756.8,1071.1,737,1065.8L737,1065.8z M387.5,1025.3h25.3v98.2h-25.3v-8.3c-8.6,6.5-19,10-29.8,10
		c-28,0-50.8-22.7-50.8-50.8c0-28,22.7-50.8,50.8-50.8c10.8-0.1,21.2,3.5,29.8,10V1025.3z M387.5,1074.4L387.5,1074.4
		c0-15.2-12.4-27.6-27.6-27.6c-15.2,0-27.6,12.4-27.6,27.6c0,15.2,12.4,27.6,27.6,27.6C375.2,1102,387.5,1089.7,387.5,1074.4
		C387.5,1074.4,387.5,1074.4,387.5,1074.4L387.5,1074.4z M504,990.3h25.3v133.2H504v-8.3c-8.6,6.5-19,10-29.8,10
		c-28,0-50.8-22.7-50.8-50.8c0-28,22.7-50.8,50.8-50.8c10.8-0.1,21.2,3.5,29.8,10L504,990.3z M504,1074.4
		c0-15.2-12.4-27.6-27.6-27.6c-15.2,0-27.6,12.4-27.6,27.6c0,15.2,12.4,27.6,27.6,27.6C491.6,1102,504,1089.7,504,1074.4
		C504,1074.4,504,1074.4,504,1074.4L504,1074.4z M646.5,1123.6h25.3v-98.2h-25.3V1123.6z M659.2,986.4c-8.7,0-15.3,6.8-15.3,15.5
		c0,8.5,6.8,15.3,15.3,15.3c8.5,0,15.3-6.8,15.3-15.3c0,0,0,0,0,0C674.5,993.3,667.8,986.4,659.2,986.4L659.2,986.4z M870.1,1074.4
		c0,28-22.7,50.8-50.8,50.8s-50.8-22.7-50.8-50.8c0-28,22.7-50.8,50.8-50.8S870.1,1046.4,870.1,1074.4L870.1,1074.4z M846.9,1074.4
		c0-15.2-12.4-27.6-27.6-27.6c-15.2,0-27.6,12.4-27.6,27.6c0,15.2,12.4,27.6,27.6,27.6l0,0C834.6,1102,846.9,1089.7,846.9,1074.4
		C846.9,1074.4,846.9,1074.4,846.9,1074.4L846.9,1074.4z M96.9,990.3H0v22.5h35.9v110.7H61v-110.7h35.9L96.9,990.3z M587,1096.7
		l-22.5-71.3H538l33.7,98.2h30.4l33.9-98.2h-26.5L587,1096.7z M907.2,1041.8v-16.5h-25.3v98.2h25.3v-58.9c0-10.7,6.8-15.9,17.5-15.9
		h13.9v-23.4h-11.8C917.4,1025.3,909.4,1030.1,907.2,1041.8L907.2,1041.8z"/>
	<circle class="st1" cx="470.3" cy="470.3" r="470.3"/>
	<path d="M760.7,378.5l56.8-61.8H691.6c-133.5-90.8-308.9-90.8-442.3,0H123.1l56.8,61.8c-70.6,64.8-75.4,174.5-10.6,245.1
		c64.8,70.6,174.5,75.4,245.1,10.6c0.1-0.1,0.2-0.2,0.3-0.3l55.6,60.5l55.6-60.5c32,29.8,74.1,46.3,117.9,46.2
		c95.8,0,173.6-77.7,173.6-173.5C817.4,457.9,796.8,411.3,760.7,378.5z M296.8,624.1c-64.8,0-117.4-52.6-117.4-117.4
		S232,389.3,296.8,389.3c64.8,0,117.4,52.6,117.4,117.4S361.6,624.1,296.8,624.1L296.8,624.1z M470.3,503.3
		c0-77.3-56.2-143.5-130.3-171.9c83.4-34.7,177.2-34.7,260.6,0C526.5,359.8,470.3,426.1,470.3,503.3L470.3,503.3z M643.7,624.1
		c-64.8,0-117.4-52.6-117.4-117.4c0-64.8,52.6-117.4,117.4-117.4c64.8,0,117.4,52.6,117.4,117.4v0
		C761.1,571.5,708.6,624.1,643.7,624.1z M643.7,445.2c-34,0-61.5,27.6-61.5,61.6s27.6,61.5,61.6,61.5c34,0,61.5-27.6,61.5-61.6
		c0,0,0,0,0,0C705.3,472.7,677.7,445.2,643.7,445.2C643.8,445.2,643.8,445.2,643.7,445.2z M358.3,506.7c0,34-27.5,61.6-61.5,61.6
		c-34,0-61.6-27.5-61.6-61.5c0-34,27.5-61.6,61.5-61.6c0,0,0,0,0,0C330.8,445.2,358.3,472.7,358.3,506.7L358.3,506.7z"/>
</g>
</svg>
